<svg xmlns="http://www.w3.org/2000/svg" viewBox="0 0 64 64" fill="none" stroke-width="2" stroke-linecap="round" stroke-linejoin="round" width="512" height="512">
  
  <!-- 漏斗本體與沙子 (深綠色) -->
  <g stroke="#15803d">
    <path d="M 22 10 H 42 Q 42 26 32 30 Q 42 34 42 50 H 22 Q 22 34 32 30 Q 22 26 22 10 Z" />
    <line x1="18" y1="10" x2="46" y2="10" />
    <line x1="18" y1="50" x2="46" y2="50" />
    <line x1="32" y1="30" x2="32" y2="46" stroke-dasharray="2 2" />
    <path d="M27 50 L32 44 L37 50 Z" stroke="none" fill="#15803d" />
  </g>
  
  <!-- 左側水蜜桃 (粉色) -->
  <g stroke="#ec4899">
    <path d="M16 30 C10 30 6 36 6 42 C6 48 10 52 16 52 C20 52 22 48 22 42" />
    <path d="M16 52 C16 46 12 42 6 42" />
    <line x1="16" y1="30" x2="16" y2="26" />
  </g>
  
  <!-- 右側甜柿 (橘色) -->
  <g stroke="#f97316">
    <path d="M48 34 C44 34 42 38 42 44 C42 50 46 52 50 52 C56 52 58 48 58 42 C58 36 54 34 48 34 Z" />
    <line x1="50" y1="34" x2="50" y2="30" />
    <path d="M46 30 Q50 28 54 30" />
  </g>

</svg>
